<svg id="Layer_1" data-name="Layer 1" xmlns="http://www.w3.org/2000/svg" viewBox="0 0 155 60"><defs><style>.cls-1{fill:#fff;}.cls-2{fill:#0069a6;}</style></defs><title>Verisk_SAVI</title><path class="cls-1" d="M7.8,52.22a.94.94,0,0,0-.88-.52.87.87,0,0,0-.92.78c0,.43.42.66.76.79l.39.15c.78.31,1.36.74,1.36,1.65a1.69,1.69,0,0,1-1.76,1.71,1.71,1.71,0,0,1-1.7-1.54l.69-.15a1,1,0,1,0,2.08,0c0-.59-.47-.85-.95-1l-.38-.16c-.63-.27-1.19-.63-1.19-1.39a1.5,1.5,0,0,1,1.62-1.42,1.57,1.57,0,0,1,1.41.83Z"/><path class="cls-1" d="M10.68,51.18h3v.63H11.36v1.54h2.2V54h-2.2V56h2.27v.63h-3Z"/><path class="cls-1" d="M19.27,56.67h-.83l-1.62-2.32h-.28v2.32h-.68V51.18h.83a2.9,2.9,0,0,1,1.45.26,1.52,1.52,0,0,1,.72,1.31,1.5,1.5,0,0,1-1.32,1.54Zm-2.73-2.89h.22c.7,0,1.46-.13,1.46-1s-.82-1-1.49-1h-.18Z"/><path class="cls-1" d="M22.65,55.25l1.63-4.07H25L22.65,57l-2.39-5.78H21Z"/><path class="cls-1" d="M26.91,51.18h3v.63H27.59v1.54h2.2V54h-2.2V56h2.27v.63h-3Z"/><path class="cls-1" d="M36.4,50.29h.39v7.28H36.4Z"/><path class="cls-1" d="M44.32,55.3l-.63,1.38H43l2.62-5.73,2.62,5.73h-.74l-.63-1.38Zm1.26-2.85-1,2.22h2Z"/><path class="cls-1" d="M49.82,51.18H51c1.68,0,3.08.89,3.08,2.72s-1.37,2.78-3.1,2.78H49.82ZM50.5,56h.24c1.4,0,2.61-.52,2.61-2.12s-1.21-2.12-2.61-2.12H50.5Z"/><path class="cls-1" d="M55.95,51.18h1.14c1.68,0,3.08.89,3.08,2.72s-1.37,2.78-3.1,2.78H55.95ZM56.63,56h.24c1.4,0,2.61-.52,2.61-2.12s-1.21-2.12-2.61-2.12h-.24Z"/><path class="cls-1" d="M67.92,55.25l1.63-4.07h.75L67.92,57l-2.39-5.78h.75Z"/><path class="cls-1" d="M72.25,55.3l-.63,1.38h-.74l2.62-5.73,2.62,5.73h-.74l-.63-1.38Zm1.26-2.85-1,2.22h2Z"/><path class="cls-1" d="M78.45,56h1.67v.63H77.76V51.18h.68Z"/><path class="cls-1" d="M82.49,51.18v3.24c0,.9.27,1.73,1.33,1.73s1.33-.83,1.33-1.73V51.18h.69v3.47a2,2,0,1,1-4,0V51.18Z"/><path class="cls-1" d="M88.27,51.18h3v.63H89v1.54h2.2V54H89V56h2.27v.63h-3Z"/><path class="cls-1" d="M97.76,50.29h.39v7.28h-.39Z"/><path class="cls-1" d="M105.57,56.67h-.69V51.18h.69Z"/><path class="cls-1" d="M108,50.92l4.12,4.32V51.18h.68V56.9l-4.12-4.32v4.09H108Z"/><path class="cls-1" d="M115.27,50.92l4.12,4.32V51.18h.68V56.9L116,52.58v4.09h-.68Z"/><path class="cls-1" d="M127.92,53.93a2.88,2.88,0,0,1-5.76,0,2.88,2.88,0,0,1,5.76,0Zm-.68,0a2.19,2.19,0,1,0-4.39,0,2.19,2.19,0,1,0,4.39,0Z"/><path class="cls-1" d="M131.47,55.25l1.63-4.07h.75L131.47,57l-2.39-5.78h.75Z"/><path class="cls-1" d="M135.79,55.3l-.63,1.38h-.74l2.62-5.73,2.62,5.73h-.74l-.63-1.38Zm1.26-2.85-1,2.22h2Z"/><path class="cls-1" d="M142.46,56.67h-.68V51.81h-1.3v-.63h3.29v.63h-1.3Z"/><path class="cls-1" d="M145.73,51.18h3v.63h-2.27v1.54h2.2V54h-2.2V56h2.27v.63h-3Z"/><g id="_Group_" data-name="&lt;Group&gt;"><g id="_Group_2" data-name="&lt;Group&gt;"><g id="_Group_3" data-name="&lt;Group&gt;"><ellipse class="cls-1" cx="21.25" cy="21.98" rx="19.75" ry="19.55"/></g><g id="_Group_4" data-name="&lt;Group&gt;"><path id="_Path_" data-name="&lt;Path&gt;" class="cls-2" d="M38,11.56a19.69,19.69,0,0,0-3.35-4,50.13,50.13,0,0,0-26.7,0,19.69,19.69,0,0,0-3.35,4A70.14,70.14,0,0,1,38,11.56Z"/><path id="_Path_2" data-name="&lt;Path&gt;" class="cls-2" d="M23.67,14.34c1.23-1.78,2.1-3,2.55-3.61a68.52,68.52,0,0,0-22.4,2.05,19.34,19.34,0,0,0-1.33,3.08A111.88,111.88,0,0,1,23.67,14.34Z"/><path id="_Path_3" data-name="&lt;Path&gt;" class="cls-2" d="M20.65,29.65c-.78,1.13-1.73,2.44-2.66,3.7a68,68,0,0,0,20.68-2.17A19.34,19.34,0,0,0,40,28.1a110.23,110.23,0,0,1-18.75,1.55Z"/><path id="_Path_4" data-name="&lt;Path&gt;" class="cls-2" d="M23,15.34A109.85,109.85,0,0,0,2.16,17a19.32,19.32,0,0,0-.52,2.7c5.9-.36,12.35-.56,18.84-.57C21.41,17.67,22.24,16.42,23,15.34Z"/><path id="_Path_5" data-name="&lt;Path&gt;" class="cls-2" d="M17.28,34.31c-1.1,1.49-2.1,2.79-2.63,3.45a50.18,50.18,0,0,0,19.94-1.38,19.69,19.69,0,0,0,3.36-4,68.67,68.67,0,0,1-16.71,2C19.92,34.43,18.6,34.38,17.28,34.31Z"/><path id="_Path_6" data-name="&lt;Path&gt;" class="cls-2" d="M32.67,6A19.88,19.88,0,0,0,9.82,6,51.36,51.36,0,0,1,32.67,6Z"/><path id="_Path_7" data-name="&lt;Path&gt;" class="cls-2" d="M24.52,23.85c5.67-.05,11.27-.24,16.43-.56,0-.43,0-.86,0-1.3s0-.87,0-1.3c-4.45-.28-9.23-.46-14.1-.53C26.08,21.36,25.39,22.48,24.52,23.85Z"/><path id="_Path_8" data-name="&lt;Path&gt;" class="cls-2" d="M27.48,19.14c4.61.08,9.13.25,13.37.52a19.28,19.28,0,0,0-.52-2.7,101.8,101.8,0,0,0-10.57-1.31C28.83,17,28.11,18.15,27.48,19.14Z"/><path id="_Path_9" data-name="&lt;Path&gt;" class="cls-2" d="M19.81,20.1c-3.79,0-7.56.09-11.21.22.37.74,1.07,2.12,1.76,3.36,2.31.07,4.65.12,7,.15Z"/><path id="_Path_10" data-name="&lt;Path&gt;" class="cls-2" d="M11,24.72l.13.22c.57.93,1.24,2,1.78,2.78l.43.64.56.82.5-.75.47-.71,1.89-2.88C14.78,24.82,12.86,24.78,11,24.72Z"/><path id="_Path_11" data-name="&lt;Path&gt;" class="cls-2" d="M21.34,28.64a108.49,108.49,0,0,0,19-1.63,19.3,19.3,0,0,0,.52-2.7c-5.34.33-11.13.52-17,.56C23.17,25.91,22.36,27.14,21.34,28.64Z"/><path id="_Path_12" data-name="&lt;Path&gt;" class="cls-2" d="M5.22,24.5l-3.57-.2A19.28,19.28,0,0,0,2.16,27q2.33.42,4.77.73C6.2,26.53,5.68,25.44,5.22,24.5Z"/><path id="_Path_13" data-name="&lt;Path&gt;" class="cls-2" d="M10.1,32.41c-1-1.3-1.52-2.07-2.49-3.56Q5,28.53,2.49,28.09a19.34,19.34,0,0,0,1.32,3.07,63.86,63.86,0,0,0,6.38,1.37Z"/><path id="_Path_14" data-name="&lt;Path&gt;" class="cls-2" d="M11.07,33.69A65.39,65.39,0,0,1,4.54,32.4a19.68,19.68,0,0,0,3.34,4,49.13,49.13,0,0,0,6.38,1.33C12.94,36.18,12,34.88,11.07,33.69Z"/><path id="_Path_15" data-name="&lt;Path&gt;" class="cls-2" d="M9.82,37.92a19.88,19.88,0,0,0,22.85,0,51.1,51.1,0,0,1-11.42,1.29A51.1,51.1,0,0,1,9.82,37.92Z"/></g></g><g id="_Group_5" data-name="&lt;Group&gt;"><g id="_Group_6" data-name="&lt;Group&gt;"><g id="_Group_7" data-name="&lt;Group&gt;"><g id="_Group_8" data-name="&lt;Group&gt;"><path id="_Compound_Path_" data-name="&lt;Compound Path&gt;" class="cls-1" d="M71.81,27.72a7.19,7.19,0,0,0,7.27,7.41c3.21,0,5.28-1.93,6.75-4.58L89,32.4A11.2,11.2,0,0,1,78.8,38.62c-6.61,0-10.85-5-10.85-11.42,0-6.56,3.82-12,10.76-12,7.13,0,10.9,5.9,10.52,12.51Zm13.45-3.21a6.77,6.77,0,0,0-6.51-5.8A7,7,0,0,0,72,24.51Z"/><path id="_Compound_Path_2" data-name="&lt;Compound Path&gt;" class="cls-1" d="M95.85,18.24h.09c1.32-1.75,2.45-3,4.91-3a6.68,6.68,0,0,1,3.4,1l-1.79,3.45a3.68,3.68,0,0,0-2.27-1c-4.15,0-4.34,5.33-4.34,8.21V38H92.07V15.83h3.77Z"/><path id="_Compound_Path_3" data-name="&lt;Compound Path&gt;" class="cls-1" d="M110.71,8.47a2.69,2.69,0,0,1-5.38,0,2.69,2.69,0,1,1,5.38,0ZM109.91,38h-3.78V15.83h3.78Z"/><path id="_Compound_Path_4" data-name="&lt;Compound Path&gt;" class="cls-1" d="M123,21a3.54,3.54,0,0,0-3-2.26,2.69,2.69,0,0,0-2.74,2.45c0,2,2.55,2.78,5.14,3.87s5.14,2.64,5.14,6.37a7.26,7.26,0,0,1-7.5,7.22A8,8,0,0,1,112.19,33l3.35-1.42c.94,2.08,2,3.54,4.53,3.54a3.37,3.37,0,0,0,3.59-3.4c0-5-10-3.26-10-10.24a6.32,6.32,0,0,1,6.61-6.28,6.7,6.7,0,0,1,5.9,4.11Z"/><polygon id="_Path_16" data-name="&lt;Path&gt;" class="cls-1" points="146.85 15.83 141.8 15.83 133.73 24.04 133.73 5.78 129.96 5.78 129.96 38.01 133.73 38.01 133.73 28.9 134.72 27.91 143.64 38.01 148.64 38.01 137.37 25.27 146.85 15.83"/><polygon id="_Path_17" data-name="&lt;Path&gt;" class="cls-1" points="68.07 5.78 59.62 28.39 51.16 5.78 46.89 5.78 59.49 38.67 59.62 38.99 72.34 5.78 68.07 5.78"/></g></g></g></g></g><path class="cls-1" d="M148.71,16.25H148v-.42H150v.42h-.75v2.12h-.55Z"/><path class="cls-1" d="M150.63,15.83h.89l.54,1.85.58-1.85h.86v2.54H153V16.19l-.69,2.18h-.45l-.68-2.18v2.18h-.51Z"/></svg>